<svg width="237" height="61" viewBox="0 0 237 61" fill="none" xmlns="http://www.w3.org/2000/svg">
<path d="M31.1718 19.1444C21.8451 15.8288 11.7076 15.555 2.21558 18.3622C1.83828 18.4525 1.48304 18.6179 1.17108 18.8485C0.859111 19.0791 0.596816 19.3702 0.39985 19.7045C0.202884 20.0387 0.0752869 20.4092 0.0246769 20.7938C-0.0259332 21.1785 0.00148172 21.5693 0.105285 21.9432C0.624801 24.0281 1.38259 26.4235 2.29272 28.5953C2.30835 28.6461 2.33276 28.6217 2.33276 28.5709C2.20093 27.5524 2.98411 26.2663 4.5202 25.7985C11.9023 23.4491 19.8468 23.5543 27.1641 26.0983C27.434 26.1906 27.7196 26.228 28.0042 26.2081C28.2887 26.1883 28.5664 26.1117 28.8209 25.9828C29.0754 25.8539 29.3015 25.6754 29.4859 25.4577C29.6702 25.2401 29.8092 24.9877 29.8945 24.7155C30.8046 21.7859 31.1718 19.7967 31.2626 19.2987C31.2782 19.2059 31.1962 19.1698 31.1718 19.1444ZM8.66949 25.5895C7.55136 25.8229 6.0055 26.1901 4.84538 26.5749C2.52611 27.3746 2.63353 30.1968 3.86885 31.0972C3.95967 30.5738 4.5202 29.8619 5.14518 29.6216C7.46054 28.7115 9.9468 28.1676 12.4604 27.943C11.1831 27.4244 9.93703 26.6813 8.68609 25.5886L8.66949 25.5895ZM27.1328 31.2398C23.8008 29.6742 20.1887 28.7925 16.5101 28.6467C12.8315 28.5009 9.16094 29.0941 5.71547 30.3911C4.61101 30.8081 3.91963 32.1518 4.61101 33.4272C5.81883 35.6109 7.18954 37.7004 8.71148 39.678C8.49274 38.9202 8.87944 37.5169 10.3638 37.0579C14.4691 35.7963 18.7766 36.3314 21.6398 37.4906C22.4484 37.8157 23.5929 37.6185 24.2345 36.6576C25.3286 34.9721 26.3237 33.2244 27.2148 31.4233C27.2549 31.3423 27.2149 31.2817 27.1328 31.2398ZM20.4807 41.3567C19.2797 40.7502 18.1814 39.959 17.2259 39.012C16.7835 38.5696 16.1322 37.9339 15.4457 37.1761C13.8783 37.1761 12.3569 37.3333 10.73 37.8528C9.21928 38.3255 9.07768 40.0706 9.73879 40.9807C10.8569 42.3742 11.6411 43.1261 12.892 44.4191C13.555 45.0693 14.4452 45.4356 15.3738 45.4401C16.3024 45.4447 17.1962 45.0872 17.8655 44.4435C18.842 43.4669 19.4426 42.8156 20.5461 41.5647C20.6115 41.4982 20.5871 41.382 20.4807 41.3567Z" fill="black"/>
<path d="M66.2645 16.6202V23.6602H55.1445V27.5802H63.1445V34.2602H55.1445V44.9402H46.2645V16.6202H66.2645ZM88.6324 40.6602H79.1924L77.7924 44.9402H68.4724L78.8324 16.6202H89.0724L99.3924 44.9402H90.0324L88.6324 40.6602ZM86.4724 33.9802L83.9124 26.1002L81.3524 33.9802H86.4724ZM113.69 45.2202C110.303 45.2202 107.503 44.4335 105.29 42.8602C103.103 41.2602 101.917 38.9269 101.73 35.8602H111.17C111.303 37.4869 112.023 38.3002 113.33 38.3002C113.81 38.3002 114.21 38.1935 114.53 37.9802C114.877 37.7402 115.05 37.3802 115.05 36.9002C115.05 36.2335 114.69 35.7002 113.97 35.3002C113.25 34.8735 112.13 34.3935 110.61 33.8602C108.797 33.2202 107.29 32.5935 106.09 31.9802C104.917 31.3669 103.903 30.4735 103.05 29.3002C102.197 28.1269 101.783 26.6202 101.81 24.7802C101.81 22.9402 102.277 21.3802 103.21 20.1002C104.17 18.7935 105.463 17.8069 107.09 17.1402C108.743 16.4735 110.597 16.1402 112.65 16.1402C116.117 16.1402 118.863 16.9402 120.89 18.5402C122.943 20.1402 124.023 22.3935 124.13 25.3002H114.57C114.543 24.5002 114.343 23.9269 113.97 23.5802C113.597 23.2335 113.143 23.0602 112.61 23.0602C112.237 23.0602 111.93 23.1935 111.69 23.4602C111.45 23.7002 111.33 24.0469 111.33 24.5002C111.33 25.1402 111.677 25.6735 112.37 26.1002C113.09 26.5002 114.223 26.9935 115.77 27.5802C117.557 28.2469 119.023 28.8869 120.17 29.5002C121.343 30.1135 122.357 30.9669 123.21 32.0602C124.063 33.1535 124.49 34.5269 124.49 36.1802C124.49 37.9135 124.063 39.4735 123.21 40.8602C122.357 42.2202 121.117 43.2869 119.49 44.0602C117.863 44.8335 115.93 45.2202 113.69 45.2202ZM155.01 16.6202V44.9402H146.13V33.9002H137.69V44.9402H128.81V16.6202H137.69V26.8202H146.13V16.6202H155.01ZM169.085 16.6202V44.9402H160.205V16.6202H169.085ZM188.096 45.2202C185.429 45.2202 182.976 44.5935 180.736 43.3402C178.522 42.0869 176.762 40.3535 175.456 38.1402C174.149 35.9269 173.496 33.4335 173.496 30.6602C173.496 27.8869 174.149 25.3935 175.456 23.1802C176.762 20.9669 178.522 19.2469 180.736 18.0202C182.976 16.7669 185.429 16.1402 188.096 16.1402C190.762 16.1402 193.202 16.7669 195.416 18.0202C197.629 19.2469 199.376 20.9669 200.656 23.1802C201.962 25.3935 202.616 27.8869 202.616 30.6602C202.616 33.4335 201.962 35.9269 200.656 38.1402C199.376 40.3535 197.616 42.0869 195.376 43.3402C193.162 44.5935 190.736 45.2202 188.096 45.2202ZM188.096 36.9402C189.856 36.9402 191.216 36.3802 192.176 35.2602C193.136 34.1135 193.616 32.5802 193.616 30.6602C193.616 28.7135 193.136 27.1802 192.176 26.0602C191.216 24.9135 189.856 24.3402 188.096 24.3402C186.309 24.3402 184.936 24.9135 183.976 26.0602C183.016 27.1802 182.536 28.7135 182.536 30.6602C182.536 32.5802 183.016 34.1135 183.976 35.2602C184.936 36.3802 186.309 36.9402 188.096 36.9402ZM234.179 44.9402H225.299L215.899 30.7002V44.9402H207.019V16.6202H215.899L225.299 31.1002V16.6202H234.179V44.9402Z" fill="black"/>
</svg>
