<svg width="52" height="53" viewBox="0 0 52 53" fill="none" xmlns="http://www.w3.org/2000/svg">
<rect y="0.395996" width="52" height="52" rx="15" fill="#EBD96B"/>
<path d="M20.875 21.7163V34.396H17.4883V21.7163H20.875ZM17.2773 18.4116C17.2773 17.9194 17.4492 17.5132 17.793 17.1929C18.1367 16.8726 18.5977 16.7124 19.1758 16.7124C19.7461 16.7124 20.2031 16.8726 20.5469 17.1929C20.8984 17.5132 21.0742 17.9194 21.0742 18.4116C21.0742 18.9038 20.8984 19.3101 20.5469 19.6304C20.2031 19.9507 19.7461 20.1108 19.1758 20.1108C18.5977 20.1108 18.1367 19.9507 17.793 19.6304C17.4492 19.3101 17.2773 18.9038 17.2773 18.4116ZM27.4488 24.4233V34.396H24.0738V21.7163H27.2378L27.4488 24.4233ZM26.9566 27.6108H26.0425C26.0425 26.6733 26.1636 25.8296 26.4058 25.0796C26.648 24.3218 26.9878 23.6772 27.4253 23.146C27.8628 22.6069 28.3823 22.1968 28.9839 21.9155C29.5933 21.6265 30.273 21.4819 31.023 21.4819C31.6167 21.4819 32.1597 21.5679 32.6519 21.7397C33.1441 21.9116 33.5659 22.1851 33.9175 22.5601C34.2769 22.9351 34.5503 23.4312 34.7378 24.0483C34.9331 24.6655 35.0308 25.4194 35.0308 26.3101V34.396H31.6323V26.2983C31.6323 25.7358 31.5542 25.2983 31.398 24.9858C31.2417 24.6733 31.0113 24.4546 30.7066 24.3296C30.4097 24.1968 30.0425 24.1304 29.605 24.1304C29.1519 24.1304 28.7573 24.2202 28.4214 24.3999C28.0933 24.5796 27.8198 24.8296 27.6011 25.1499C27.3902 25.4624 27.23 25.8296 27.1206 26.2515C27.0113 26.6733 26.9566 27.1265 26.9566 27.6108Z" fill="black"/>
</svg>
